<?xml version="1.0" encoding="UTF-8" standalone="no"?>
<!-- Created with Inkscape (http://www.inkscape.org/) -->

<svg
   width="120"
   height="120"
   viewBox="0 0 31.75 31.75"
   version="1.1"
   id="svg5"
   inkscape:version="1.4 (e7c3feb100, 2024-10-09)"
   sodipodi:docname="ndcube.svg"
   inkscape:export-filename="ndcube.pdf"
   inkscape:export-xdpi="96"
   inkscape:export-ydpi="96"
   xmlns:inkscape="http://www.inkscape.org/namespaces/inkscape"
   xmlns:sodipodi="http://sodipodi.sourceforge.net/DTD/sodipodi-0.dtd"
   xmlns:xlink="http://www.w3.org/1999/xlink"
   xmlns="http://www.w3.org/2000/svg"
   xmlns:svg="http://www.w3.org/2000/svg">
  <sodipodi:namedview
     id="namedview7"
     pagecolor="#505050"
     bordercolor="#eeeeee"
     borderopacity="1"
     inkscape:pageshadow="0"
     inkscape:pageopacity="0"
     inkscape:pagecheckerboard="0"
     inkscape:document-units="px"
     showgrid="false"
     inkscape:zoom="2.8284271"
     inkscape:cx="143.89623"
     inkscape:cy="88.565124"
     inkscape:window-width="2544"
     inkscape:window-height="1394"
     inkscape:window-x="0"
     inkscape:window-y="0"
     inkscape:window-maximized="0"
     inkscape:current-layer="layer4"
     inkscape:snap-midpoints="true"
     inkscape:snap-nodes="false"
     inkscape:snap-intersection-paths="true"
     inkscape:snap-object-midpoints="true"
     inkscape:snap-grids="false"
     showguides="false"
     inkscape:snap-page="true"
     inkscape:showpageshadow="2"
     inkscape:deskcolor="#d1d1d1">
    <inkscape:grid
       type="xygrid"
       id="grid30911"
       empspacing="4"
       originx="0"
       originy="0"
       spacingy="1"
       spacingx="1"
       units="px" />
  </sodipodi:namedview>
  <defs
     id="defs2">
    <linearGradient
       inkscape:collect="always"
       id="linearGradient26949">
      <stop
         style="stop-color:#ffffff;stop-opacity:1;"
         offset="0"
         id="stop26945" />
      <stop
         style="stop-color:#99b5c9;stop-opacity:1"
         offset="1"
         id="stop26947" />
    </linearGradient>
    <linearGradient
       inkscape:collect="always"
       xlink:href="#linearGradient26949"
       id="linearGradient26951"
       x1="80.53817"
       y1="96.494545"
       x2="60"
       y2="60"
       gradientUnits="userSpaceOnUse"
       gradientTransform="matrix(0.26455924,0,0,0.26458333,0.00267961,0)" />
  </defs>
  <g
     inkscape:label="Ebene 1"
     inkscape:groupmode="layer"
     id="layer1"
     style="display:inline">
    <path
       d="M 15.849679,0 8.371582,4.2509033 c 0.034266,0.1973343 0.9704596,5.5677088 1.974557,8.4775187 0.42793,0.295774 1.007634,0.532191 1.245402,0.898653 0.900881,2.448508 0.683162,4.745447 0.683162,4.745447 l -0.860929,0.350366 c 0,0 -1.5547486,-0.976251 -2.8587406,-4.066935 -0.023972,-0.354792 0.3311444,-1.085437 0.3762044,-1.39268 C 7.9582925,10.800269 6.2423028,5.6362857 6.1934204,5.4890706 L 1.8479492,7.9592041 1.8732707,23.834204 7.4641439,26.98905 C 7.4556791,26.965703 4.8767167,19.851926 4.0152588,16.17369 3.8855018,15.619656 3.7789125,14.942096 3.7527425,14.445113 c 0.204513,0.256782 0.4070674,0.586658 0.5296834,0.90072 3.3008706,8.454672 6.0368011,13.244213 6.0456261,13.259656 L 15.900321,31.75 29.902051,23.790796 29.876729,7.9157959 Z"
       style="fill:#164a8d"
       id="path7" />
  </g>
  <g
     inkscape:groupmode="layer"
     id="layer2"
     inkscape:label="Waben"
     style="display:inline">
    <path
       id="path6304"
       style="mix-blend-mode:normal;fill:url(#linearGradient26951);fill-opacity:1;fill-rule:evenodd;stroke:none;stroke-width:0.264571;stroke-linecap:butt;stroke-linejoin:miter;stroke-miterlimit:4;stroke-dasharray:none;stroke-opacity:1"
       d="m 15.851432,0.52916666 0.01188,7.40833324 6.730242,3.7982181 c 2.107274,-1.215045 4.463447,-2.4810101 6.659453,-3.6426719 z M 29.410093,8.2749471 c -2.100762,1.2475538 -4.377865,2.5941479 -6.532856,3.8204389 l 0.01137,7.557678 c 2.188472,1.160717 4.513539,2.413538 6.545775,3.59978 z M 22.77441,19.89801 15.889152,23.8125 15.901036,31.220833 29.21529,23.651786 C 27.120465,22.468705 24.875553,21.14468 22.774409,19.89801 Z" />
    <path
       id="path31-3"
       style="fill:#ffffff;fill-opacity:1;stroke-width:0.91364"
       d="m 59.90625,2 v 115.89453 l 0.1875,0.10547 0.8125,-0.46094 V 2.5644531 Z"
       transform="scale(0.26458333)" />
  </g>
  <g
     inkscape:groupmode="layer"
     id="layer3"
     inkscape:label="stars"
     style="display:inline">
    <path
       id="rect29367-5"
       style="fill:#ffffff;stroke-width:0.0283417"
       d="m 18.203333,19.84375 c 1e-6,0.132292 0.132292,0.264583 0.264584,0.264584 -0.184792,0.01808 -0.264583,0.132291 -0.264584,0.264583 1e-6,-0.132292 -0.132291,-0.264584 -0.264583,-0.264583 0.132292,-1e-6 0.264584,-0.132292 0.264583,-0.264584 z"
       sodipodi:nodetypes="ccccc"
       inkscape:transform-center-x="0.26890272"
       inkscape:transform-center-y="0.11876526" />
    <path
       id="rect29367-6"
       style="fill:#ffffff;stroke-width:0.085025"
       d="m 20.690417,17.4625 c 1e-6,0.396875 0.396876,0.79375 0.79375,0.793751 -0.554376,0.05426 -0.793749,0.396874 -0.79375,0.793749 1e-6,-0.396875 -0.396875,-0.79375 -0.79375,-0.793749 0.396875,-10e-7 0.793751,-0.396876 0.79375,-0.793751 z"
       sodipodi:nodetypes="ccccc"
       inkscape:transform-center-x="0.80670822"
       inkscape:transform-center-y="0.35629571" />
    <path
       id="rect29367-2"
       style="fill:#ffffff;stroke-width:0.0850253"
       d="m 18.732499,10.900833 c 2e-6,0.396875 0.396876,0.79375 0.793751,0.793751 -0.554377,0.05425 -0.793749,0.396873 -0.793751,0.793749 2e-6,-0.396876 -0.396874,-0.79375 -0.793749,-0.793749 0.396875,-1e-6 0.793751,-0.396876 0.793749,-0.793751 z"
       sodipodi:nodetypes="ccccc"
       inkscape:transform-center-x="0.80670818"
       inkscape:transform-center-y="0.35629574" />
    <path
       id="rect29367-9"
       style="fill:#ffffff;stroke-width:0.0566833"
       d="m 21.431249,14.022917 c 10e-7,0.264584 0.264584,0.529167 0.529167,0.529167 -0.369584,0.03617 -0.529166,0.264583 -0.529167,0.529166 10e-7,-0.264583 -0.264582,-0.529166 -0.529166,-0.529166 0.264584,0 0.529167,-0.264583 0.529166,-0.529167 z"
       sodipodi:nodetypes="ccccc"
       inkscape:transform-center-x="0.53780531"
       inkscape:transform-center-y="0.2375304" />
    <path
       id="rect29367-1"
       style="fill:#ffffff;stroke-width:0.0566833"
       d="m 17.515416,15.345833 c 1e-6,0.264583 0.264584,0.529167 0.529167,0.529167 -0.369584,0.03617 -0.529166,0.264583 -0.529167,0.529166 1e-6,-0.264583 -0.264583,-0.529167 -0.529166,-0.529166 0.264583,-10e-7 0.529167,-0.264584 0.529166,-0.529167 z"
       sodipodi:nodetypes="ccccc"
       inkscape:transform-center-x="0.53780531"
       inkscape:transform-center-y="0.2375304" />
  </g>
  <g
     inkscape:groupmode="layer"
     id="layer4"
     inkscape:label="snake"
     style="display:inline">
    <path
       d="m 10.328052,28.605489 c -0.0088,-0.01544 -2.7447555,-4.804984 -6.0456261,-13.259656 -0.122616,-0.314062 -0.3251704,-0.643938 -0.5296834,-0.90072 0.02617,0.496983 0.1327593,1.174543 0.2625163,1.728577 0.8614579,3.678236 3.4404203,10.792013 3.4488851,10.81536 z"
       style="opacity:1;fill:#ffffff;fill-rule:evenodd;stroke-width:0.264583px"
       id="path9" />
    <path
       style="fill:#ffffff;fill-opacity:1;fill-rule:evenodd;stroke:none;stroke-width:0.264583px;stroke-linecap:butt;stroke-linejoin:miter;stroke-opacity:1"
       d="m 11.757263,18.65429 0.408377,0.753683 c 0,0 -0.120919,0.567553 -0.07568,0.678 0.05943,-0.04723 0.149981,-0.411653 0.188434,-0.562898 0.06711,0.0217 0.474741,0.339504 0.580991,0.332719 -0.0421,-0.111453 -0.522838,-0.464805 -0.522838,-0.464805 l -0.286069,-0.869071 z"
       id="path39696"
       sodipodi:nodetypes="cccccccc" />
    <path
       d="m 6.1934204,5.4890706 c 0.048882,0.1472151 1.7648721,5.3111984 2.7378174,7.7742024 -0.04506,0.307243 -0.4001764,1.037888 -0.3762044,1.39268 1.303992,3.090684 2.8587406,4.066935 2.8587406,4.066935 l 0.860929,-0.350366 c 0,0 0.217719,-2.296939 -0.683162,-4.745447 C 11.353773,13.260613 10.774069,13.024196 10.346139,12.728422 9.3420421,9.8186121 8.4058485,4.4482376 8.371582,4.2509033 Z"
       style="fill:#ffffff;stroke-width:0.25007"
       id="path5" />
    <path
       id="path36526"
       style="fill:#164a8d;fill-opacity:1;stroke:#ffffff;stroke-width:0.132292;stroke-opacity:1"
       d="m 11.636446,15.006714 c 0.241822,-0.07608 0.499529,0.05832 0.575615,0.3001 0.07608,0.241823 -0.05832,0.499532 -0.300101,0.575615 -0.264392,-0.15387 -0.361909,-0.519301 -0.275514,-0.875715 z"
       sodipodi:nodetypes="cscc" />
    <path
       id="path36526-0"
       style="fill:#164a8d;fill-opacity:1;stroke:#ffffff;stroke-width:0.132292;stroke-opacity:1"
       d="m 9.843279,16.574036 c -0.220685,0.124754 -0.500727,0.04695 -0.625477,-0.173699 -0.124755,-0.220688 -0.04694,-0.500729 0.173701,-0.625478 0.29063,0.09546 0.462083,0.432586 0.451776,0.799177 z"
       sodipodi:nodetypes="cscc" />
  </g>
</svg>
